<mxfile host="app.diagrams.net" modified="2022-05-12T09:01:02.189Z" agent="5.0 (Macintosh; Intel Mac OS X 10_15_7) AppleWebKit/537.36 (KHTML, like Gecko) Chrome/101.0.4951.54 Safari/537.36" etag="B1j0MLE08xA6LvluPXEt" version="18.0.3" type="github">
  <diagram name="Page-1" id="5f0bae14-7c28-e335-631c-24af17079c00">
    <mxGraphModel dx="1097" dy="1063" grid="1" gridSize="10" guides="1" tooltips="1" connect="1" arrows="1" fold="1" page="1" pageScale="1" pageWidth="1100" pageHeight="850" background="none" math="0" shadow="0">
      <root>
        <mxCell id="0" />
        <mxCell id="1" parent="0" />
        <mxCell id="NAZXxwsv6ZmOrh4xrV_X-1" value="&amp;lt;device&amp;gt;&lt;br&gt;&lt;br style=&quot;font-size: 15px;&quot;&gt;&lt;span style=&quot;font-size: 16px;&quot;&gt;&lt;b&gt;Computer&lt;/b&gt;&lt;/span&gt;" style="verticalAlign=top;align=center;spacingTop=8;spacingLeft=2;spacingRight=12;shape=cube;size=10;direction=south;fontStyle=4;html=1;" vertex="1" parent="1">
          <mxGeometry x="345" y="120" width="695" height="520" as="geometry" />
        </mxCell>
        <mxCell id="NAZXxwsv6ZmOrh4xrV_X-3" value="&amp;lt;operationSystem&amp;gt;" style="verticalAlign=top;align=center;spacingTop=8;spacingLeft=2;spacingRight=12;shape=cube;size=10;direction=south;fontStyle=4;html=1;fontSize=16;" vertex="1" parent="1">
          <mxGeometry x="360" y="190" width="660" height="430" as="geometry" />
        </mxCell>
        <mxCell id="NAZXxwsv6ZmOrh4xrV_X-2" value="&amp;lt;executionEnvironment&amp;gt;&lt;br&gt;&lt;br&gt;&lt;b&gt;Java Virtual Machine&lt;/b&gt;" style="verticalAlign=top;align=center;spacingTop=8;spacingLeft=2;spacingRight=12;shape=cube;size=10;direction=south;fontStyle=4;html=1;fontSize=16;" vertex="1" parent="1">
          <mxGeometry x="370" y="235" width="250" height="355" as="geometry" />
        </mxCell>
        <mxCell id="NAZXxwsv6ZmOrh4xrV_X-7" value="" style="edgeStyle=orthogonalEdgeStyle;rounded=0;orthogonalLoop=1;jettySize=auto;html=1;fontSize=16;exitX=0.5;exitY=1;exitDx=0;exitDy=0;endArrow=none;endFill=0;" edge="1" parent="1" source="NAZXxwsv6ZmOrh4xrV_X-4" target="NAZXxwsv6ZmOrh4xrV_X-2">
          <mxGeometry relative="1" as="geometry">
            <Array as="points">
              <mxPoint x="735" y="340" />
            </Array>
          </mxGeometry>
        </mxCell>
        <mxCell id="NAZXxwsv6ZmOrh4xrV_X-12" style="edgeStyle=orthogonalEdgeStyle;rounded=0;orthogonalLoop=1;jettySize=auto;html=1;exitX=0.5;exitY=1;exitDx=0;exitDy=0;fontSize=21;endArrow=none;endFill=0;" edge="1" parent="1" source="NAZXxwsv6ZmOrh4xrV_X-4" target="NAZXxwsv6ZmOrh4xrV_X-10">
          <mxGeometry relative="1" as="geometry" />
        </mxCell>
        <mxCell id="NAZXxwsv6ZmOrh4xrV_X-4" value="&lt;b&gt;&amp;lt;&lt;/b&gt;artifact&lt;b&gt;&amp;gt;&lt;br&gt;TDLib Shared Library&lt;/b&gt;" style="html=1;fontSize=16;" vertex="1" parent="1">
          <mxGeometry x="650" y="383" width="180" height="85" as="geometry" />
        </mxCell>
        <mxCell id="NAZXxwsv6ZmOrh4xrV_X-5" value="&amp;lt;database&amp;gt;&lt;br&gt;&lt;b&gt;SQLite&lt;/b&gt;" style="shape=cylinder3;whiteSpace=wrap;html=1;boundedLbl=1;backgroundOutline=1;size=15;fontSize=16;" vertex="1" parent="1">
          <mxGeometry x="860" y="370" width="130" height="110" as="geometry" />
        </mxCell>
        <mxCell id="NAZXxwsv6ZmOrh4xrV_X-8" value="&amp;lt;artifact&amp;gt;&lt;br&gt;&lt;b&gt;Swing GUI Application&lt;/b&gt;" style="html=1;fontSize=16;" vertex="1" parent="1">
          <mxGeometry x="390" y="345" width="200" height="80" as="geometry" />
        </mxCell>
        <mxCell id="NAZXxwsv6ZmOrh4xrV_X-9" value="&amp;lt;artifact&amp;gt;&lt;br&gt;&lt;b&gt;TAWT&lt;/b&gt;" style="html=1;fontSize=16;" vertex="1" parent="1">
          <mxGeometry x="390" y="450" width="200" height="80" as="geometry" />
        </mxCell>
        <mxCell id="NAZXxwsv6ZmOrh4xrV_X-10" value="&amp;lt;device&amp;gt;&lt;br style=&quot;font-size: 22px;&quot;&gt;&lt;span style=&quot;font-size: 21px;&quot;&gt;&lt;b&gt;Telegram Web Server&lt;/b&gt;&lt;/span&gt;" style="verticalAlign=top;align=center;spacingTop=8;spacingLeft=2;spacingRight=12;shape=cube;size=10;direction=south;fontStyle=4;html=1;fontSize=16;" vertex="1" parent="1">
          <mxGeometry x="540" y="710" width="400" height="260" as="geometry" />
        </mxCell>
        <mxCell id="NAZXxwsv6ZmOrh4xrV_X-11" value="&amp;lt;artifact&amp;gt;&lt;br&gt;&lt;b&gt;Telegram API&lt;/b&gt;" style="html=1;fontSize=21;" vertex="1" parent="1">
          <mxGeometry x="610" y="800" width="260" height="100" as="geometry" />
        </mxCell>
      </root>
    </mxGraphModel>
  </diagram>
</mxfile>
